<?xml version="1.0" encoding="UTF-8"?>
<svg width="400" height="400" viewBox="0 0 400 400" xmlns="http://www.w3.org/2000/svg">
    <!-- Background edges (1.0pt) -->
    <g stroke="#f5f5f5" stroke-width="1" fill="none">
        <path d="M200 120 L280 160 L280 240 L200 280 L120 240 L120 160 Z" />
        <path d="M200 120 L240 80 L320 120 L280 160" />
        <path d="M320 120 L320 200 L280 240" />
        <path d="M320 200 L240 320 L200 280" />
        <path d="M240 320 L160 320 L120 240" />
        <path d="M160 320 L80 200 L120 160" />
        <path d="M80 200 L80 120 L160 80 L240 80" />
    </g>

    <!-- Middle ground edges (1.25pt) -->
    <g stroke="#f5f5f5" stroke-width="1.25" fill="none">
        <path d="M200 120 L240 80" />
        <path d="M280 160 L320 120" />
        <path d="M280 240 L320 200" />
        <path d="M200 280 L240 320" />
        <path d="M120 240 L160 320" />
        <path d="M120 160 L80 200" />
    </g>

    <!-- Foreground edges (1.5pt) -->
    <g stroke="#f5f5f5" stroke-width="1.5" fill="none">
        <path d="M200 120 L280 160" />
        <path d="M280 160 L280 240" />
        <path d="M280 240 L200 280" />
        <path d="M200 280 L120 240" />
        <path d="M120 240 L120 160" />
        <path d="M120 160 L200 120" />
    </g>

    <!-- Vertices (dots for emphasis) -->
    <g fill="#f5f5f5">
        <circle cx="200" cy="120" r="2" />
        <circle cx="280" cy="160" r="2" />
        <circle cx="280" cy="240" r="2" />
        <circle cx="200" cy="280" r="2" />
        <circle cx="120" cy="240" r="2" />
        <circle cx="120" cy="160" r="2" />
        <circle cx="240" cy="80" r="2" />
        <circle cx="320" cy="120" r="2" />
        <circle cx="320" cy="200" r="2" />
        <circle cx="240" cy="320" r="2" />
        <circle cx="160" cy="320" r="2" />
        <circle cx="80" cy="200" r="2" />
    </g>
</svg>
